<svg xmlns="http://www.w3.org/2000/svg" viewBox="0 0 254.61 86.71"><defs><style>.cls-1{fill:#fff;}</style></defs><g id="Layer_2" data-name="Layer 2"><g id="Layer_1-2" data-name="Layer 1"><path class="cls-1" d="M21,45.55q8.46,0,13.58,5c.49.49.91.94,1.26,1.36q3.23,4.19,1.88,8.57c-1,2.85-3.42,4.53-7.11,5q-3.24.42-9.51,1.15h-.41l-.11.11h-.83l-.11.1h-.73l-.1.11H18l-.1.1h-.73l-.11.1h-.73l-.1.11h-.84q1.77,8.35,8.67,11.28,6.27,2.61,11.39-.84a11.52,11.52,0,0,0,3.34-3.55c.7-1,1.22-1.42,1.57-1.35a1.3,1.3,0,0,1,.41.93Q37.13,86.6,21.24,86.6A21,21,0,0,1,5.36,80,19.54,19.54,0,0,1,1,72.19a17.19,17.19,0,0,1-.83-4Q-1,55.16,7.45,49.21,12.77,45.55,21,45.55Zm-.1,1.57q-4.18,0-5.85,7a23.64,23.64,0,0,0,0,11.7q12.1-1.47,11.9-9.09v-.94c-.48-5-2-7.84-4.59-8.46A5.31,5.31,0,0,0,20.93,47.12Z"/><path class="cls-1" d="M64,23.92a41.69,41.69,0,0,1,13.78-1.14,96.33,96.33,0,0,1,12,2c1.74.28,2.85,0,3.34-.94.28-.63.66-.77,1.15-.42a1,1,0,0,1,.31.73V37.61a1,1,0,0,1-.73.84,1.23,1.23,0,0,1-.83-.63Q89.56,24.86,78,24.24H76.81q-8.25.11-14.1,7.73-6.48,8.56-6.48,22.67,0,18.08,9.3,26.11a16.11,16.11,0,0,0,10.66,4.18q8.25-.11,13.47-7.42A23,23,0,0,0,93,70.2c.13-.55.52-.73,1.14-.52a.9.9,0,0,1,.42.73V85.14c0,.7-.28,1-.83.84a1.59,1.59,0,0,1-.63-.53q-1.15-1.67-6.37-.62A78.35,78.35,0,0,1,73.26,86.6a44.76,44.76,0,0,1-8.46-.94A28.68,28.68,0,0,1,46.21,71.87a33.35,33.35,0,0,1-4.6-17.23q0-13.8,9.3-23.09A29.29,29.29,0,0,1,64,23.92Z"/><path class="cls-1" d="M116.51,45.55q18.9-.73,21.41,14.73l1.57,13.47q1.37,8.16,5,8.88a2.07,2.07,0,0,0,.94,0h.73c.55,0,.8.28.73.84a1,1,0,0,1-.42.63,19.37,19.37,0,0,1-9.92,2.61q-7.74-.1-10.45-5.23c0,.28-.7.91-2.09,1.88A18.63,18.63,0,0,1,113,86.6q-10.24,0-13.27-5.95a10.76,10.76,0,0,1-.94-4.49q0-8.05,8-10.45.84-.21,9-1.57a18.47,18.47,0,0,0,4.39-1.25,4.51,4.51,0,0,0,2.82-5,3.79,3.79,0,0,0-.11-.94c-.62-5.16-2.44-8.29-5.43-9.41a5.75,5.75,0,0,0-2.09-.41c-2.86,0-4.35,1.18-4.49,3.55v.21c-.07.9.59,1.95,2,3.13a4.58,4.58,0,0,1,1.88,4.39c-.34,2.16-1.81,3.52-4.38,4.07a6.16,6.16,0,0,1-6.48-2.09,6.9,6.9,0,0,1-1.05-2.19q-1.56-6,3.66-9.72A19.43,19.43,0,0,1,116.51,45.55Zm7,16.71a7.17,7.17,0,0,1-2.72,2.3c-3,1.88-4.7,3-5.11,3.34a8.84,8.84,0,0,0-3.14,6.8q0,5.85,4.81,7.73,3.86,1.45,6.47-.84a4,4,0,0,0,1.47-3.87Z"/><path class="cls-1" d="M178,45q5.85,0,8.36,4.49a8.66,8.66,0,0,1-.53,8.67,6.31,6.31,0,0,1-6.68,3.13,4,4,0,0,1-1.26-.2q-3.54-1.15-3.65-4.29c0-1.11.69-2.16,2.09-3.13a3.5,3.5,0,0,0,1.56-2.3c-.06-2-.94-3.27-2.61-3.76a5.94,5.94,0,0,0-1.88-.11q-4.59,1.36-5.43,8.36a62,62,0,0,0-.31,6.9V75q0,7.41,3.65,8.88a13.21,13.21,0,0,0,1.78.52c.49.14.77.38.83.73a1,1,0,0,1-.83.84H147.74a1,1,0,0,1-.83-.84,1,1,0,0,1,.83-.73,5.43,5.43,0,0,0,5-4.39,23.84,23.84,0,0,0,.42-5V65q0-9.09-4.39-10.45a6.62,6.62,0,0,1-.73-.21c-.56-.2-.87-.48-.94-.83a1.05,1.05,0,0,1,.94-.73,30,30,0,0,0,17.86-6.69,3.23,3.23,0,0,0,.42-.31c.49-.42.9-.38,1.25.1a1.79,1.79,0,0,1,.11.52v3.14a16.28,16.28,0,0,1,6.47-4A16,16,0,0,1,178,45Z"/><path class="cls-1" d="M205.2,31.45a1,1,0,0,1,.83-.53,1,1,0,0,1,.63.84v16h7.21a1.28,1.28,0,0,1,.84.84,1,1,0,0,1-.84.73h-7.21V72q0,8,3.34,8c1.61-.07,3-1.11,4.08-3.13l.31-.63a1.3,1.3,0,0,1,.73-.52c.56,0,.8.28.73.84a.41.41,0,0,1-.1.31q-3,6.69-8.77,9a11.71,11.71,0,0,1-4.08.73q-8.67,0-10.34-8.77A29.8,29.8,0,0,1,192,72l.1-16.09q0-5.32-.94-6.16c-.56-.35-1.95-.52-4.18-.52-.55-.28-.87-.56-.94-.84a1,1,0,0,1,.84-.73q5-1.05,11.49-6.9Q203.84,35.83,205.2,31.45Z"/><path class="cls-1" d="M234.87,45.55q8.46,0,13.58,5c.48.49.9.94,1.25,1.36q3.24,4.19,1.88,8.57c-1,2.85-3.41,4.53-7.1,5q-3.24.42-9.51,1.15h-.42l-.1.11h-.84l-.1.1h-.73l-.11.11h-.83l-.11.1H231l-.1.1h-.74l-.1.11h-.84q1.78,8.35,8.67,11.28,6.27,2.61,11.39-.84a11.4,11.4,0,0,0,3.34-3.55c.7-1,1.22-1.42,1.57-1.35a1.27,1.27,0,0,1,.42.93Q251,86.6,235.07,86.6A20.94,20.94,0,0,1,219.2,80a19.42,19.42,0,0,1-4.39-7.83,16.68,16.68,0,0,1-.84-4q-1.14-13.06,7.31-19C224.84,46.77,229.36,45.55,234.87,45.55Zm-.11,1.57q-4.19,0-5.85,7a23.64,23.64,0,0,0,0,11.7q12.12-1.47,11.91-9.09v-.94q-.73-7.53-4.6-8.46A5.21,5.21,0,0,0,234.76,47.12Z"/><path class="cls-1" d="M181.21,31.57h-5a29.33,29.33,0,0,0-25.95-26V3.16a3.16,3.16,0,0,0-6.32,0V5.61a29.32,29.32,0,0,0-26,26h-5a3.16,3.16,0,0,0,0,6.32h68.23a3.16,3.16,0,0,0,0-6.32Zm-56.88,0a23,23,0,0,1,45.5,0Z"/></g></g></svg>